<svg width="40" height="40" viewBox="0 0 40 40" fill="none" xmlns="http://www.w3.org/2000/svg">
<path d="M0.764347 9.52107C1.36562 4.90628 4.8962 1.30337 9.51203 0.710153C12.5212 0.323424 16.1797 0 20 0C23.7525 0 27.349 0.312052 30.3272 0.689633C35.0271 1.28549 38.5946 4.99533 39.2034 9.69358C39.6271 12.9638 40 16.7616 40 20C40 23.2038 39.635 26.9551 39.2169 30.2015C38.6048 34.9538 34.9691 38.6938 30.2156 39.2971C27.1934 39.6806 23.5967 40 20 40C16.3389 40 12.6778 39.669 9.62252 39.2764C4.95319 38.6763 1.35466 35.0433 0.750782 30.3744C0.346346 27.2476 0 23.5372 0 20C0 16.4233 0.354122 12.6696 0.764347 9.52107Z" fill="#F2F2F2"/>
<path fill-rule="evenodd" clip-rule="evenodd" d="M28 16.0034L18.157 26L12 18.3227L14.4111 16.5437L18.3939 21.51L25.7885 14L28 16.0034Z" fill="#01498C"/>
</svg>
